<svg width="19" height="20" viewBox="0 0 19 20" fill="none" xmlns="http://www.w3.org/2000/svg">
<path d="M10.2787 0.42016C9.99333 0.15034 9.61548 0 9.22272 0C8.82997 0 8.45212 0.15034 8.16672 0.42016L0.720911 7.4571C0.492927 7.67284 0.311393 7.93285 0.187431 8.22122C0.0634693 8.50958 -0.00030984 8.82022 1.13171e-06 9.1341V17.6959C0.000408624 18.3071 0.243508 18.8932 0.675863 19.3252C1.10822 19.7573 1.69444 20 2.30568 20H4.61136C5.22287 20 5.80933 19.7571 6.24173 19.3247C6.67412 18.8923 6.91704 18.3058 6.91704 17.6943V13.8515C6.91704 13.6477 6.99802 13.4522 7.14215 13.3081C7.28628 13.1639 7.48177 13.083 7.6856 13.083H10.7598C10.9637 13.083 11.1592 13.1639 11.3033 13.3081C11.4474 13.4522 11.5284 13.6477 11.5284 13.8515V17.6943C11.5284 18.3058 11.7713 18.8923 12.2037 19.3247C12.6361 19.7571 13.2226 20 13.8341 20H16.1398C16.7513 20 17.3377 19.7571 17.7701 19.3247C18.2025 18.8923 18.4454 18.3058 18.4454 17.6943V9.13256C18.4453 8.81883 18.3812 8.50842 18.257 8.22033C18.1328 7.93223 17.9511 7.67253 17.723 7.4571L10.2787 0.417086V0.42016Z" fill="#979797"/>
</svg>
