<svg width="18" height="21" viewBox="0 0 18 21" fill="none" xmlns="http://www.w3.org/2000/svg">
<path d="M17.5108 13.2077L15.7108 11.3977V6.9377C15.7347 5.28152 15.1587 3.67261 14.0889 2.40803C13.0192 1.14346 11.528 0.308632 9.8908 0.057697C8.94061 -0.0674359 7.97466 0.0115119 7.0574 0.289272C6.14014 0.567033 5.29267 1.03722 4.57152 1.66846C3.85037 2.2997 3.27214 3.07747 2.8754 3.94989C2.47867 4.82231 2.27255 5.76931 2.2708 6.7277V11.3977L0.470796 13.2077C0.244702 13.4376 0.0913793 13.729 0.029996 14.0455C-0.0313873 14.362 0.00189202 14.6896 0.125673 14.9873C0.249455 15.2851 0.458246 15.5397 0.725946 15.7194C0.993647 15.8991 1.30838 15.9959 1.6308 15.9977H4.9908V16.3377C5.03751 17.3529 5.48475 18.3082 6.23452 18.9942C6.98429 19.6803 7.97545 20.0411 8.9908 19.9977C10.0061 20.0411 10.9973 19.6803 11.7471 18.9942C12.4968 18.3082 12.9441 17.3529 12.9908 16.3377V15.9977H16.3508C16.6732 15.9959 16.9879 15.8991 17.2556 15.7194C17.5233 15.5397 17.7321 15.2851 17.8559 14.9873C17.9797 14.6896 18.013 14.362 17.9516 14.0455C17.8902 13.729 17.7369 13.4376 17.5108 13.2077V13.2077ZM10.9908 16.3377C10.9353 16.8187 10.6964 17.2598 10.3239 17.569C9.9513 17.8782 9.47378 18.0318 8.9908 17.9977C8.50781 18.0318 8.0303 17.8782 7.65772 17.569C7.28515 17.2598 7.04625 16.8187 6.9908 16.3377V15.9977H10.9908V16.3377Z" fill="#979797"/>
</svg>
