<svg width="20" height="20" viewBox="0 0 20 20" fill="none" xmlns="http://www.w3.org/2000/svg">
<path fill-rule="evenodd" clip-rule="evenodd" d="M6.25 12.5H18.75C19.0815 12.5 19.3995 12.6317 19.6339 12.8661C19.8683 13.1005 20 13.4185 20 13.75C20 14.0815 19.8683 14.3995 19.6339 14.6339C19.3995 14.8683 19.0815 15 18.75 15H6.25C5.91848 15 5.60054 14.8683 5.36612 14.6339C5.1317 14.3995 5 14.0815 5 13.75C5 13.4185 5.1317 13.1005 5.36612 12.8661C5.60054 12.6317 5.91848 12.5 6.25 12.5V12.5ZM6.25 17.5H18.75C19.0815 17.5 19.3995 17.6317 19.6339 17.8661C19.8683 18.1005 20 18.4185 20 18.75C20 19.0815 19.8683 19.3995 19.6339 19.6339C19.3995 19.8683 19.0815 20 18.75 20H6.25C5.91848 20 5.60054 19.8683 5.36612 19.6339C5.1317 19.3995 5 19.0815 5 18.75C5 18.4185 5.1317 18.1005 5.36612 17.8661C5.60054 17.6317 5.91848 17.5 6.25 17.5V17.5ZM13.75 7.5H18.75C19.0815 7.5 19.3995 7.6317 19.6339 7.86612C19.8683 8.10054 20 8.41848 20 8.75C20 9.08152 19.8683 9.39946 19.6339 9.63388C19.3995 9.8683 19.0815 10 18.75 10H13.75C13.4185 10 13.1005 9.8683 12.8661 9.63388C12.6317 9.39946 12.5 9.08152 12.5 8.75C12.5 8.41848 12.6317 8.10054 12.8661 7.86612C13.1005 7.6317 13.4185 7.5 13.75 7.5V7.5ZM4.67875 9.8925L0 5.215L1.7675 3.44625L4.67875 6.3575L11.035 0L12.8038 1.7675L4.67875 9.8925V9.8925Z" fill="#979797"/>
</svg>
